# xmcd
#
# Track frame offsets:
# 150
# 17294
# 34545
# 52041
# 71534
# 89712
# 107157
# 124250
# 143768
# 161200
# 179924
# 196092
#
# Disc length: 2874 seconds
#
#
# Revision: 9
# Processed by: cddbd v1.5PL3 Copyright (c) Steve Scherf et al.
# Submitted via: FreeRIP 2.60 
#
DISCID=aa0b380c
DTITLE=Café Quijano - La taberna del Buda
DYEAR=2001
DGENRE=Latin
TTITLE0=Nada de ná
TTITLE1=De piratas
TTITLE2=Desde Brasil
TTITLE3=Lucia, la corista
TTITLE4=Que le debo la vida
TTITLE5=En aquel hotel jamaicano
TTITLE6=La taberna del Buda
TTITLE7=Otra vez (Qué pena de mi)
TTITLE8=Las llaves de Raquel
TTITLE9=Que poca cosa
TTITLE10=En mis besos
TTITLE11=Otra vez (Qué pena de mi) con Olga Tañón
EXTD=YEAR: 2001
EXTT0=
EXTT1=
EXTT2=
EXTT3=
EXTT4=
EXTT5=
EXTT6=
EXTT7=
EXTT8=
EXTT9=
EXTT10=
EXTT11=
PLAYORDER=
